<svg width="118" height="26" viewBox="0 0 118 26" fill="none" xmlns="http://www.w3.org/2000/svg">
<path d="M15.6094 20H12.9707L2.94922 4.66016V20H0.310547V0.09375H2.94922L12.998 15.502V0.09375H15.6094V20ZM22.8965 12.207V20H20.2715V0.09375H27.6133C29.7917 0.09375 31.4961 0.64974 32.7266 1.76172C33.9661 2.8737 34.5859 4.3457 34.5859 6.17773C34.5859 8.11003 33.9798 9.60026 32.7676 10.6484C31.5645 11.6875 29.8372 12.207 27.5859 12.207H22.8965ZM22.8965 10.0605H27.6133C29.0169 10.0605 30.0924 9.73242 30.8398 9.07617C31.5872 8.41081 31.9609 7.45378 31.9609 6.20508C31.9609 5.02018 31.5872 4.07227 30.8398 3.36133C30.0924 2.65039 29.0671 2.28125 27.7637 2.25391H22.8965V10.0605ZM40.752 20H38.127V0.09375H40.752V20ZM54.5605 0.09375H56.2559V14.0801C56.2559 15.9668 55.709 17.4707 54.6152 18.5918C53.5306 19.7129 52.0723 20.2734 50.2402 20.2734C48.3079 20.2734 46.8223 19.7676 45.7832 18.7559C44.7441 17.7441 44.2246 16.3314 44.2246 14.5176H45.9062C45.9062 15.9577 46.2845 17.0423 47.041 17.7715C47.7975 18.4915 48.8639 18.8516 50.2402 18.8516C51.5072 18.8516 52.5371 18.4323 53.3301 17.5938C54.1322 16.7552 54.5423 15.6159 54.5605 14.1758V0.09375ZM70.1465 20C69.9824 19.5352 69.8776 18.847 69.832 17.9355C69.2578 18.6829 68.5241 19.2617 67.6309 19.6719C66.7467 20.0729 65.8079 20.2734 64.8145 20.2734C63.3926 20.2734 62.2396 19.877 61.3555 19.084C60.4805 18.291 60.043 17.2884 60.043 16.0762C60.043 14.6361 60.64 13.4967 61.834 12.6582C63.0371 11.8197 64.7096 11.4004 66.8516 11.4004H69.8184V9.71875C69.8184 8.66146 69.4902 7.83203 68.834 7.23047C68.1868 6.61979 67.2389 6.31445 65.9902 6.31445C64.8509 6.31445 63.9076 6.60612 63.1602 7.18945C62.4128 7.77279 62.0391 8.47461 62.0391 9.29492L60.3984 9.28125C60.3984 8.10547 60.9453 7.08919 62.0391 6.23242C63.1328 5.36654 64.4772 4.93359 66.0723 4.93359C67.722 4.93359 69.0208 5.34831 69.9688 6.17773C70.9258 6.99805 71.418 8.14648 71.4453 9.62305V16.623C71.4453 18.054 71.5957 19.125 71.8965 19.8359V20H70.1465ZM65.0059 18.8242C66.0996 18.8242 67.0749 18.5599 67.9316 18.0312C68.7975 17.5026 69.4264 16.7962 69.8184 15.9121V12.6582H66.8926C65.2611 12.6764 63.985 12.9772 63.0645 13.5605C62.1439 14.1348 61.6836 14.9277 61.6836 15.9395C61.6836 16.7689 61.9889 17.457 62.5996 18.0039C63.2194 18.5508 64.0215 18.8242 65.0059 18.8242ZM87.7148 12.7539C87.7148 15.0599 87.2044 16.8919 86.1836 18.25C85.1628 19.599 83.7956 20.2734 82.082 20.2734C80.0586 20.2734 78.5091 19.5625 77.4336 18.1406V25.6875H75.8066V5.20703H77.3242L77.4062 7.29883C78.4727 5.72201 80.0176 4.93359 82.041 4.93359C83.8092 4.93359 85.1947 5.60352 86.1973 6.94336C87.209 8.2832 87.7148 10.1426 87.7148 12.5215V12.7539ZM86.0742 12.4668C86.0742 10.5801 85.6868 9.08984 84.9121 7.99609C84.1374 6.90234 83.0573 6.35547 81.6719 6.35547C80.6693 6.35547 79.8079 6.59701 79.0879 7.08008C78.3678 7.56315 77.8164 8.26497 77.4336 9.18555V16.2812C77.8255 17.1289 78.3861 17.776 79.1152 18.2227C79.8444 18.6693 80.7057 18.8926 81.6992 18.8926C83.0755 18.8926 84.1465 18.3457 84.9121 17.252C85.6868 16.1491 86.0742 14.554 86.0742 12.4668ZM100.689 20C100.525 19.5352 100.421 18.847 100.375 17.9355C99.8008 18.6829 99.0671 19.2617 98.1738 19.6719C97.2897 20.0729 96.3509 20.2734 95.3574 20.2734C93.9355 20.2734 92.7826 19.877 91.8984 19.084C91.0234 18.291 90.5859 17.2884 90.5859 16.0762C90.5859 14.6361 91.1829 13.4967 92.377 12.6582C93.5801 11.8197 95.2526 11.4004 97.3945 11.4004H100.361V9.71875C100.361 8.66146 100.033 7.83203 99.377 7.23047C98.7298 6.61979 97.7819 6.31445 96.5332 6.31445C95.3939 6.31445 94.4505 6.60612 93.7031 7.18945C92.9557 7.77279 92.582 8.47461 92.582 9.29492L90.9414 9.28125C90.9414 8.10547 91.4883 7.08919 92.582 6.23242C93.6758 5.36654 95.0202 4.93359 96.6152 4.93359C98.265 4.93359 99.5638 5.34831 100.512 6.17773C101.469 6.99805 101.961 8.14648 101.988 9.62305V16.623C101.988 18.054 102.139 19.125 102.439 19.8359V20H100.689ZM95.5488 18.8242C96.6426 18.8242 97.6178 18.5599 98.4746 18.0312C99.3405 17.5026 99.9694 16.7962 100.361 15.9121V12.6582H97.4355C95.804 12.6764 94.528 12.9772 93.6074 13.5605C92.6868 14.1348 92.2266 14.9277 92.2266 15.9395C92.2266 16.7689 92.5319 17.457 93.1426 18.0039C93.7624 18.5508 94.5645 18.8242 95.5488 18.8242ZM107.922 5.20703L107.977 7.73633C108.533 6.82487 109.225 6.13216 110.055 5.6582C110.884 5.17513 111.8 4.93359 112.803 4.93359C114.389 4.93359 115.569 5.38021 116.344 6.27344C117.118 7.16667 117.51 8.50651 117.52 10.293V20H115.893V10.2793C115.883 8.95768 115.601 7.97331 115.045 7.32617C114.498 6.67904 113.618 6.35547 112.406 6.35547C111.395 6.35547 110.497 6.67448 109.713 7.3125C108.938 7.94141 108.364 8.79362 107.99 9.86914V20H106.363V5.20703H107.922Z" fill="#2C485C"/>
</svg>
